#!OML:ASF F:\VICON\USERDATA\INSTALL\rory3\rory3.ASF
:FULLY-SPECIFIED
:DEGREES
150
root -0.7861377926449374 17.13263905318191 23.063115413856444 2.354107542973982 -4.440475904973741 -2.598493069461297
lfemur -19.916856228629488 5.526200617181616 -19.52339062996873
ltibia 65.7927924532134
lfoot 1.8664963766910363 -7.5182253197867475
ltoes -5.997040309298697
rfemur -17.095126719977095 5.525423469149208 30.086512414721494
rtibia 87.39602929629044
rfoot -0.04854951061396662 -9.980019213040709
rtoes 9.208127655652829
lowerback 16.232385790227323 1.5773818176436603 1.565417777311441
upperback -0.07714168111929076 2.540621756366212 0.9711015861288246
thorax -10.630949039423218 1.2006523927934403 0.1563023103580758
lowerneck -19.592281438022752 -4.4276011219444245 -2.2223929545273657
upperneck 8.347778591624085 -6.074647943211143 4.741134340029437
head 6.098467835166453 -2.6074981749181747 1.1990587708818035
lclavicle 1.1245391003629982e-15 -1.476601628993882e-15
lhumerus -39.91405737786002 -15.362881282402729 97.53792560925471
lradius 110.86321228145101
lwrist 28.770749525926828
lhand -31.58318957983285 0.774293696941964
lfingers 7.125019999999998
lthumb -4.981741964571116 30.675876948810235
rclavicle 1.1245391004163281e-15 -1.476601628959325e-15
rhumerus -51.73308105171368 10.193887605702553 -97.82987839290504
rradius 115.55226397878248
rwrist -11.813168361905475
rhand -18.79969447404771 33.65406264104359
rfingers 7.125019999999998
rthumb 6.193701273741113 5.283909417412531
151
root -0.7798341787195164 17.130509635709004 22.977363640140517 2.3764963932394148 -4.678782135180247 -2.702448640881506
lfemur -20.05023640740373 5.649297097604176 -19.236819047868707
ltibia 66.35775782741405
lfoot 1.4212928204383917 -7.56681845628194
ltoes -9.305634563809761
rfemur -17.131401578123256 5.642440884845911 30.272743595188505
rtibia 87.38584498807133
rfoot -0.06158755445399944 -9.780711365257979
rtoes 9.53475973454217
lowerback 16.224989247900467 1.5672037740066418 1.6447930392595853
upperback -0.08042078874888392 2.5453539937137917 0.9880995556921162
thorax -10.579592782807975 1.2025777519366252 0.15068393214654285
lowerneck -19.62862798026263 -4.397375342391426 -2.207079101401575
upperneck 8.353081096638155 -6.026917176279965 4.739051757732987
head 6.132130973611807 -2.5765686940212023 1.1948770298179383
lclavicle 1.1245391003632686e-15 -1.476601628993676e-15
lhumerus -40.420881505071655 -15.259717362881691 97.43076564318122
lradius 111.17612080078034
lwrist 28.933118425737046
lhand -31.628638139138907 0.780076866530024
lfingers 7.125019999999998
lthumb -4.9278357826203205 30.68919408674474
rclavicle 1.124539100418381e-15 -1.4766016289578024e-15
rhumerus -51.674102239356195 10.275798974005385 -97.92525437640651
rradius 115.61580015098728
rwrist -11.87977255177017
rhand -18.718051090770345 33.88235183824124
rfingers 7.125019999999998
rthumb 6.176568373596261 5.4651121562855485
152
root -0.7842376193184101 17.134946995596007 23.128987779698413 2.4285135831958415 -4.814320106146942 -2.787580097630164
lfemur -20.25543103839949 5.713189823483797 -18.992793878856663
ltibia 66.87682198480437
lfoot 2.117909088779335 -7.715023238162248
ltoes -9.84092714702321
rfemur -17.208562973909054 5.772283816848894 30.406411188103586
rtibia 87.39690195084431
rfoot 0.09010795838861307 -9.59202471154349
rtoes 10.547295176474009
lowerback 16.270313548329632 1.5482968964990889 1.6877221958633428
upperback -0.09739460997540195 2.5551625627580323 1.0601995802356914
thorax -10.67333752101592 1.1973718588590987 0.1314628409733804
lowerneck -19.569959178232647 -4.383305744168023 -2.1982537857062603
upperneck 8.368979497006066 -6.004033208715844 4.741535642005548
head 6.156658645256443 -2.557208483010793 1.1926885379051244
lclavicle 1.1245391003635695e-15 -1.476601628993451e-15
lhumerus -41.20423137863614 -15.176944069106355 97.35864442889583
lradius 111.45946202454259
lwrist 29.531667200149545
lhand -31.612714660851537 0.8794144342683534
lfingers 7.125019999999998
lthumb -4.547836938546252 30.955366928996156
rclavicle 1.1245391004177558e-15 -1.4766016289582564e-15
rhumerus -51.63570036557724 10.3282221108488 -98.0153074994418
rradius 115.7095105190335
rwrist -11.88060386491257
rhand -18.656165688814845 34.25908207302752
rfingers 7.125019999999998
rthumb 6.160551917225278 5.755377669316012
153
root -0.7777194775712811 17.1769074865181 23.32993493984477 2.551745977390363 -4.876234038123433 -2.890787668491044
lfemur -20.482584750451892 5.699216690979928 -18.787566638351866
ltibia 67.36974023994351
lfoot 3.1190912621326268 -7.8149290814133305
ltoes -8.955884817543915
rfemur -17.150941156627045 5.725917362125177 30.62641953170764
rtibia 87.20056703176658
rfoot 0.07391931389287087 -9.444694744909661
rtoes 10.035349581879661
lowerback 16.189986604930343 1.5204433535868178 1.796648798659084
upperback -0.08315803805286737 2.525141641991179 1.1201300865994113
thorax -10.56939891267465 1.191629723866283 0.16937534309940022
lowerneck -19.64128779673649 -4.373637753125726 -2.1937626934640564
upperneck 8.453743393494609 -5.987672812418604 4.744235200552444
head 6.225277554476299 -2.536818790088671 1.1888997072535132
lclavicle 1.1245391003608933e-15 -1.4766016289953204e-15
lhumerus -42.06535432676706 -15.003166019185944 97.22407812366303
lradius 111.6477741358478
lwrist 30.093584233826935
lhand -31.509250584295952 0.8468989297483385
lfingers 7.125019999999998
lthumb -4.54466102891091 30.765812963452966
rclavicle 1.124539100418189e-15 -1.476601628957858e-15
rhumerus -51.62410760226527 10.375474019799238 -98.11910448666649
rradius 115.82197005251768
rwrist -12.045990914574455
rhand -18.59342856804017 34.65825755553831
rfingers 7.125019999999998
rthumb 6.1902532911040575 6.1550783251568815
154
root -0.7698771851434953 17.215053358045456 23.59559535398007 2.6582426708745603 -4.918806895066653 -2.969277283810321
lfemur -20.67617836303024 5.6715982918926695 -18.636764703379303
ltibia 67.85276594581691
lfoot 3.3765402535566436 -8.137134603338694
ltoes -8.703603174487922
rfemur -17.083508481149753 5.704290142219392 30.76309951883265
rtibia 87.0485886185048
rfoot 0.18014181489241343 -9.295507078952916
rtoes 10.13163910667255
lowerback 16.09400867341291 1.4978286522097541 1.8820592980270954
upperback -0.07817617895217632 2.5095535363526316 1.1695655382625743
thorax -10.498308066980718 1.1860155235813443 0.18504839805122486
lowerneck -19.6825196079144 -4.357187299934793 -2.193883707362281
upperneck 8.563979990635751 -5.961094112421758 4.746652500030964
head 6.3008211678278885 -2.5118707273967016 1.184757578993093
lclavicle 1.1245391003583583e-15 -1.4766016289971179e-15
lhumerus -42.9670559530094 -14.827426460641849 97.08418628977684
lradius 111.69944242733273
lwrist 30.342750473785234
lhand -31.371256385468946 0.778532044433615
lfingers 7.125019999999998
lthumb -4.526905021984675 30.546306121060532
rclavicle 1.1245391004174746e-15 -1.4766016289582972e-15
rhumerus -51.681928501380675 10.39214794745164 -98.21574622606002
rradius 115.9534213199735
rwrist -12.423014572353395
rhand -18.5025225611376 35.09104843576742
rfingers 7.125019999999998
rthumb 6.23330164065535 6.581508582056755
155
root -0.7629695801269895 17.28744263874854 23.978034555575118 2.835553077642516 -4.86120820516201 -3.074551516989222
lfemur -20.918797146745764 5.551825732500351 -18.51345484908496
ltibia 68.3475720196372
lfoot 4.337520613260899 -8.477734067533918
ltoes -6.978211783895063
rfemur -16.95229766170973 5.602748947874501 30.939286020002907
rtibia 86.70565041078274
rfoot 0.3564334500044475 -9.177132421703648
rtoes 10.904749426684955
lowerback 15.968207997486532 1.469255647235793 2.001240225742307
upperback -0.08276392715909253 2.4986116160881857 1.2291289238698828
thorax -10.458538163265851 1.1825850982767243 0.192417827318427
lowerneck -19.671114886115586 -4.344290130833109 -2.189541425780331
upperneck 8.69330161197149 -5.943149482096056 4.7474201234800315
head 6.369767281150373 -2.493512960143157 1.1811536483263185
lclavicle 1.1245391003585244e-15 -1.4766016289968118e-15
lhumerus -43.64432599552694 -14.569448632301949 97.00821923719371
lradius 111.59198858671091
lwrist 30.717307934406172
lhand -31.09543106251645 0.9139461588424944
lfingers 7.125019999999998
lthumb -4.473759077482659 30.27636150104243
rclavicle 1.1245391004188286e-15 -1.476601628957134e-15
rhumerus -51.799711243381765 10.369466801304874 -98.30378748905602
rradius 116.13982512837525
rwrist -12.82130439673254
rhand -18.46585454777795 35.55306989501225
rfingers 7.125019999999998
rthumb 6.276626998717742 7.14106811388122
156
root -0.7464351423611649 17.31112095915849 24.295964827809946 2.8733494656802083 -4.845644693460715 -3.0383019381952385
lfemur -21.05835054684897 5.478790299941623 -18.577119413880997
ltibia 68.80699988446125
lfoot 3.7758521547304946 -9.598672879262097
ltoes -8.074273652674428
rfemur -16.81834389425605 5.567334873055485 30.839349758710128
rtibia 86.67828594877363
rfoot 0.5689449991733935 -8.94047081050164
rtoes 10.807698645854916
lowerback 15.83027328330756 1.4582573954553852 2.0141895264941696
upperback -0.0813854373986973 2.487817895470648 1.2364289219059617
thorax -10.299709158313956 1.186235269449469 0.205261840414866
lowerneck -19.705387646518982 -4.328237951812781 -2.1552075928515957
upperneck 8.841216661131424 -5.935971093230692 4.725055225779175
head 6.437117667337635 -2.484697430487584 1.1663813503171747
lclavicle 1.1245391003553105e-15 -1.4766016289989314e-15
lhumerus -44.20691471356378 -14.188211893501109 97.00133387993199
lradius 111.40460166129468
lwrist 31.11685869289505
lhand -30.969437100926868 0.9651245038517952
lfingers 7.125019999999998
lthumb -4.42518775377604 30.250879705132796
rclavicle 1.1245391004170608e-15 -1.476601628958186e-15
rhumerus -51.93333316625272 10.322826073517176 -98.38157479439339
rradius 116.36626854409135
rwrist -13.036028501042631
rhand -18.501543032483895 35.88618155724778
rfingers 7.125019999999998
rthumb 6.219688162427631 7.423794053966872
157
root -0.7385152971578481 17.33697859664166 24.566310433555977 2.909254107925071 -4.76290549500333 -2.983425401789567
lfemur -21.21771916621059 5.386267947361621 -18.66922693046536
ltibia 69.23497973392088
lfoot 3.615116838889031 -10.94003123173967
ltoes -8.375931034057187
rfemur -16.698686371211323 5.526883282348915 30.714843931754
rtibia 86.6915591106874
rfoot 0.8715607995301737 -8.837937257636947
rtoes 11.043475444909285
lowerback 15.747639630629655 1.4445087504643803 1.9903515529353246
upperback -0.08380879387657436 2.4701486152113574 1.2545144131393866
thorax -10.249523934810737 1.182367183549834 0.21859450362996008
lowerneck -19.700388410707014 -4.3214637948568075 -2.114963248209305
upperneck 8.95414406961556 -5.936495543929818 4.699526869776028
head 6.505989459202704 -2.479677780976272 1.1494778172845166
lclavicle 1.124539100353927e-15 -1.47660162899986e-15
lhumerus -44.815789940786686 -13.872537653428964 97.01261000935591
lradius 111.16786593393633
lwrist 31.090646475099575
lhand -30.70951704515307 0.8829576024130784
lfingers 7.125019999999998
lthumb -4.161492883623565 30.214464208677974
rclavicle 1.1245391004174321e-15 -1.4766016289577734e-15
rhumerus -52.06535533160149 10.267674940001125 -98.44660887243715
rradius 116.57169628538506
rwrist -12.855185433306072
rhand -18.583077572433336 36.45911134317823
rfingers 7.125019999999998
rthumb 6.1481915184406795 7.915514817413806
